<svg width="236" height="236" viewBox="0 0 236 236" fill="none" xmlns="http://www.w3.org/2000/svg">
<g id="Group 1">
<path id="Vector" d="M0.0020752 109.531C1.21851 102.922 2.1089 96.2378 3.70155 89.7291C15.4897 41.7482 55.4689 6.62153 104.54 0.877859C105.593 0.752451 106.609 0.300978 107.65 0C114.573 0 121.495 0 128.43 0C134.412 1.16629 140.469 2.06923 146.375 3.54904C201.203 17.2937 237.533 65.8139 235.952 123.037C234.473 176.561 194.017 223.389 140.18 233.86C72.9505 246.94 7.65185 198.52 0.905034 130.625C0.767088 129.245 0.303048 127.891 0.0020752 126.524C0.0020752 120.855 0.0020752 115.187 0.0020752 109.531ZM117.996 231.941C180.674 232.067 231.939 181.026 232.128 118.31C232.316 55.4552 181.088 4.01304 118.209 3.9378C55.494 3.86255 4.45394 54.7153 4.12789 117.62C3.80183 180.449 54.9548 231.816 117.996 231.941Z" fill="#115740"/>
<path id="Vector_2" d="M110.434 207.023C106.271 205.944 103.186 205.154 100.088 204.364C99.9754 204.653 99.8751 204.941 99.7622 205.242C102.346 206.96 104.941 208.678 107.525 210.409C107.324 210.86 107.111 211.299 106.91 211.751C104.478 211.487 101.994 211.45 99.6243 210.936C78.18 206.27 60.1467 195.824 45.8129 179.12C38.2885 170.366 37.9625 166.968 43.8565 156.91C44.6466 155.568 45.6122 154.339 46.791 152.621C52.7603 158.039 58.855 162.942 67.3951 159.719C71.6463 158.114 74.1043 154.816 75.4336 150.163C70.6431 150.163 66.116 150.426 61.639 150.088C56.7106 149.724 52.6223 147.592 50.064 143.027C49.4997 142.012 48.4589 141.159 47.4431 140.532C40.6461 136.343 38 130.612 40.3451 122.925C41.7873 118.184 44.3455 113.782 46.5276 108.942C38.8779 97.1031 42.5021 84.5875 59.0807 83.7347C58.4286 78.9441 58.2531 74.1034 57.0116 69.5511C55.8453 65.2872 52.2712 64.3843 48.3586 66.5413C39.2416 71.5952 32.7582 87.4468 35.9435 97.379C38.4641 105.267 37.6364 112.904 34.7771 120.441C33.3851 124.103 31.4163 127.577 30.3002 131.302C29.1841 135.039 28.7953 138.989 27.7921 144.394C26.8014 141.548 26.0615 139.993 25.7229 138.35C21.2334 116.504 23.6411 95.4101 33.6861 75.4954C36.1566 70.592 39.8811 65.8766 44.1198 62.4028C51.4686 56.3833 60.1592 59.5686 63.0937 68.5729C63.5326 69.9148 63.9841 71.3068 64.0593 72.6863C64.4983 80.4615 64.0217 87.986 69.1884 95.1969C72.938 100.426 70.2418 107.311 67.3073 113.168C66.6427 114.485 66.4922 116.842 67.2572 117.958C73.841 127.64 70.9315 137.234 59.946 141.284C59.2563 141.535 58.554 141.773 57.8643 142.012C57.8267 142.425 57.8016 142.852 57.764 143.266C60.7235 143.705 63.6957 144.495 66.6552 144.507C86.6449 144.595 103.637 129.91 106.196 110.384C107.337 101.63 104.026 94.0181 99.5365 86.8322C97.204 83.0951 94.4576 79.6213 92.1627 75.8716C87.4223 68.134 84.3625 59.7317 87.0712 50.7525C88.6764 45.4352 92.1251 40.6697 94.6708 35.7914C93.3916 36.5689 91.2598 37.4593 89.6295 38.914C80.8135 46.7394 78.9825 56.7219 82.7447 67.2812C85.1776 74.141 89.3411 80.4239 93.0531 86.7695C96.6522 92.9271 100.126 99.0846 100.251 106.446C100.302 109.092 100.251 111.851 99.6118 114.397C96.4766 127.151 89.2157 130.687 74.9445 126.398C75.2706 125.546 75.4963 124.668 75.9226 123.903C82.4187 112.34 81.8292 100.853 74.7438 89.9674C58.855 65.538 68.5112 27.0003 110.886 23.7522C124.48 22.7113 141.234 25.1317 150.715 29.7718C150.012 31.9539 149.31 34.1611 148.457 36.8448C152.897 38.8137 157.261 40.7575 162.001 42.8643C159.781 47.3916 157.725 51.5802 155.555 55.9945C153.599 55.1417 151.956 53.9504 150.225 53.8124C148.282 53.6619 145.059 53.9002 144.545 54.9913C143.767 56.6341 144.043 60.1706 145.272 61.1362C150.351 65.1367 147.003 68.2468 144.733 71.4071C140.695 77.0254 138.776 77.7904 133.948 75.671C122.561 70.6672 120.718 65.6384 122.348 56.3206C118.711 54.2388 112.83 54.9035 112.24 48.8212C111.764 43.9303 115.313 42.0868 119.025 40.2308C115.338 39.1648 112.503 40.6948 110.296 43.3284C107.638 46.5012 107.324 50.2258 109.092 53.9378C109.745 55.3173 110.735 57.0354 111.989 57.537C117.194 59.5812 118.247 63.4688 118.899 68.598C119.827 75.834 130.574 84.8132 137.371 83.5842C141.936 82.7565 145.974 79.0444 151.153 76.0974C153.147 78.2042 155.856 81.4272 158.966 84.1861C160.358 85.4277 162.716 86.594 164.384 86.3055C168.51 85.5907 172.623 84.3492 176.473 82.6813C178.467 81.8159 180.799 79.8596 181.364 77.9158C182.48 74.0281 182.781 69.9649 187.082 67.7452C175.645 70.2534 169.651 66.4911 169.387 56.4084C171.394 56.5839 173.413 56.7595 176.385 57.0103C169.713 52.4706 169.651 52.0442 174.153 48.0688C175.858 50.0878 177.589 52.132 179.307 54.1636C179.533 54.0131 179.771 53.8626 179.997 53.7246C179.207 51.2792 178.417 48.8212 177.627 46.3758C178.065 46.1876 178.504 45.9995 178.943 45.8114C194.268 59.531 205.479 75.8214 210.006 96.8523C206.495 97.1031 203.272 97.1909 200.087 97.5671C189.151 98.8588 179.921 104.339 170.83 109.982C169.789 110.635 169.275 112.453 168.936 113.833C168.459 115.789 168.372 117.846 166.879 120.567C163.343 115.651 159.819 110.747 156.094 105.581C154.916 106.91 153.586 108.402 151.918 110.283C160.534 120.868 170.14 129.935 182.931 135.001C186.919 136.581 190.907 136.356 194.381 133.145C195.058 132.518 196.563 132.619 197.666 132.656C199.422 132.719 201.165 133.007 203.999 133.321C192.537 126.047 190.756 118.949 197.729 111.851C199.033 113.619 200.337 115.388 201.767 117.319C201.93 114.409 201.629 111.926 202.394 109.845C202.695 109.029 205.379 109.08 207.573 108.603C207.147 110.81 206.771 112.265 206.62 113.732C206.482 115.099 206.595 116.504 207.26 118.034C208.464 115.525 209.668 113.017 210.859 110.497C211.285 110.647 211.712 110.798 212.151 110.961C213.568 131.339 209.492 150.452 198.08 168.498C197.027 166.729 196.224 165.325 195.359 163.958C191.045 157.073 184.624 154.452 176.699 153.9C169.701 153.411 162.54 152.684 155.869 150.69C145.673 147.655 138.851 140.82 137.484 129.634C137.396 128.894 137.083 128.179 136.857 127.414C132.631 127.891 131.377 129.508 132.681 133.697C134.838 140.645 138.901 145.912 145.071 149.762C135.892 156.208 125.445 155.38 118.134 147.881C116.266 145.962 114.322 144.131 112.441 142.225C110.184 139.955 107.738 139.403 104.327 141.635C116.705 148.846 115.601 159.255 110.61 169.89C104.478 182.97 92.6643 181.427 79.5093 179.722C82.4563 184.387 84.6885 187.948 87.0085 191.635C86.2059 194.031 85.2529 196.89 84.2998 199.749C84.7262 200.05 85.1651 200.351 85.5914 200.64C87.3973 195.485 90.6453 192.037 95.8622 190.996C100.941 189.98 105.594 192.074 108.729 196.94C107.136 197.116 105.569 197.053 104.189 197.53C102.985 197.943 101.994 198.984 101.217 199.523C104.239 200.326 107.236 200.715 109.77 202.032C110.597 202.458 110.196 205.255 110.372 206.998L110.434 207.023ZM48.4212 133.785C51.1676 128.104 53.8012 122.661 56.6103 116.855C55.0928 115.801 53.4626 114.685 51.8824 113.582C44.935 121.909 43.8189 128.969 48.4212 133.772V133.785ZM61.313 120.554C58.8425 125.771 56.5851 130.549 54.0645 135.892C58.8424 136.443 61.8145 135.678 63.6204 132.28C65.6394 128.455 65.8276 124.793 61.313 120.567V120.554ZM61.9525 94.294C59.8332 99.0846 57.7389 103.838 55.5568 108.766C57.3501 109.97 58.9678 111.061 60.573 112.152C65.4889 105.255 65.8903 99.1347 61.94 94.294H61.9525ZM56.7733 89.5034C48.5592 90.2308 46.4524 95.7613 51.0798 103.474C53.0362 98.6833 54.7543 94.457 56.7733 89.5034ZM137.271 43.4161C128.33 40.0678 126.988 40.8202 127.853 48.3697C130.85 46.7896 133.684 45.2973 137.271 43.4161Z" fill="#115740"/>
<path id="Vector_3" d="M124.517 212.415C121.382 200.013 115.965 189.742 101.305 186.606C102.308 184.65 102.697 182.393 103.976 181.653C113.055 176.323 119.024 168.962 120.304 158.628H138.437C139.98 162.39 138.65 166.19 136.719 170.115C135.365 172.849 134.098 175.909 133.935 178.881C133.571 185.428 138.237 189.391 144.795 188.651C147.755 188.312 150.702 187.748 153.611 187.096C156.508 186.443 159.355 185.541 162.452 184.688C163.644 185.992 164.973 187.434 165.826 188.35C166.227 184.337 165.851 179.86 167.255 176.022C168.948 171.395 173.325 169.639 178.341 169.852C177.815 172.36 177.363 174.567 176.899 176.787C181.464 170.63 183.433 170.241 187.308 174.931C184.737 176.963 182.141 179.007 179.545 181.051C179.721 181.289 179.896 181.54 180.072 181.778C182.931 180.762 185.79 179.747 188.65 178.731C188.863 179.245 189.076 179.759 189.289 180.261C172.171 199.523 150.802 210.371 124.542 212.44L124.517 212.415Z" fill="#115740"/>
<path id="Vector_4" d="M149.523 57.6875C153.047 58.2769 155.141 61.2491 157.01 64.5348C162.026 73.3258 163.067 73.6017 171.895 68.3095C173.325 72.1721 171.883 75.069 169.011 77.3138C165.976 79.6965 162.252 80.1104 159.543 77.4392C157.123 75.0439 155.568 71.6705 154.025 68.5353C152.294 65.0239 151.003 61.2867 149.536 57.6875H149.523Z" fill="#115740"/>
<path id="Vector_5" d="M48.421 133.797C43.8187 128.994 44.9348 121.934 51.8822 113.607C53.4749 114.71 55.0926 115.826 56.61 116.88C53.801 122.674 51.1674 128.129 48.421 133.81V133.797Z" fill="white"/>
<path id="Vector_6" d="M61.3002 120.567C65.8148 124.793 65.6268 128.455 63.6077 132.28C61.8019 135.678 58.8297 136.456 54.0518 135.892C56.5724 130.562 58.8297 125.771 61.3002 120.554V120.567Z" fill="white"/>
<path id="Vector_7" d="M61.9401 94.3064C65.8778 99.1471 65.489 105.267 60.5731 112.164C58.9679 111.086 57.3376 109.982 55.5569 108.778C57.7389 103.85 59.8333 99.097 61.9526 94.3064H61.9401Z" fill="white"/>
<path id="Vector_8" d="M56.748 89.5159C54.729 94.4695 53.011 98.6958 51.0546 103.486C46.4146 95.7738 48.534 90.2433 56.748 89.5159Z" fill="white"/>
<path id="Vector_9" d="M137.246 43.4286C133.659 45.3097 130.825 46.8021 127.828 48.3822C126.962 40.8327 128.292 40.0802 137.246 43.4286Z" fill="white"/>
</g>
</svg>
