<svg width="240" height="240" viewBox="0 0 240 240" fill="none" xmlns="http://www.w3.org/2000/svg">
<g id="Group">
<g id="Group_2">
<path id="Vector" d="M62.4751 110.496C73.7098 110.496 82.8173 101.388 82.8173 90.1537C82.8173 78.919 73.7098 69.8115 62.4751 69.8115C51.2404 69.8115 42.1329 78.919 42.1329 90.1537C42.1329 101.388 51.2404 110.496 62.4751 110.496Z" fill="#DE7E44"/>
<path id="Vector_2" d="M113.792 205.73C125.792 205.73 135.52 196.002 135.52 184.002C135.52 172.002 125.792 162.275 113.792 162.275C101.792 162.275 92.0647 172.002 92.0647 184.002C92.0647 196.002 101.792 205.73 113.792 205.73Z" fill="#DE7E44"/>
<path id="Vector_3" d="M170.65 113.279C185.972 113.279 198.393 100.858 198.393 85.5363C198.393 70.2143 185.972 57.7935 170.65 57.7935C155.328 57.7935 142.907 70.2143 142.907 85.5363C142.907 100.858 155.328 113.279 170.65 113.279Z" fill="#DE7E44"/>
<path id="Vector_4" d="M60.9115 101.531L104.366 176.797L113.974 171.25L70.5196 95.9841L60.9115 101.531Z" fill="#DE7E44"/>
<path id="Vector_5" d="M156.245 101.077L112.791 176.343L122.399 181.89L165.853 106.624L156.245 101.077Z" fill="#DE7E44"/>
</g>
<path id="Vector_6" d="M120 238C185.17 238 238 185.17 238 120C238 54.8304 185.17 2 120 2C54.8303 2 2 54.8304 2 120C2 185.17 54.8303 238 120 238Z" stroke="#DE7E44" stroke-width="3" stroke-miterlimit="10"/>
</g>
</svg>
